<svg width="192" height="22" viewBox="0 0 192 22" fill="none" xmlns="http://www.w3.org/2000/svg">
<path d="M10.8506 21.261C14.5626 21.261 16.8536 20.043 18.5066 18.68V10.473H10.3576V13.228H15.6356V17.201C14.5046 17.955 12.9966 18.448 10.8506 18.448C6.35558 18.448 3.51358 15.316 3.51358 11.14C3.51358 6.964 6.32658 3.832 10.3286 3.832C13.1996 3.832 14.5626 4.876 15.7516 6.181L17.8976 4.151C16.2736 2.324 14.0696 1.019 10.4156 1.019C4.76058 1.019 0.294583 5.311 0.294583 11.14C0.294583 16.969 4.78958 21.261 10.8506 21.261ZM22.2086 21H34.0116V18.245H25.3116V1.28H22.2086V21ZM45.1954 21.261C50.8504 21.261 55.3744 16.969 55.3744 11.14C55.3744 5.311 50.8504 1.019 45.1954 1.019C39.5404 1.019 35.0164 5.311 35.0164 11.14C35.0164 16.969 39.5404 21.261 45.1954 21.261ZM45.1954 18.448C41.1064 18.448 38.2354 15.316 38.2354 11.14C38.2354 6.964 41.1064 3.832 45.1954 3.832C49.2844 3.832 52.1554 6.964 52.1554 11.14C52.1554 15.316 49.2844 18.448 45.1954 18.448ZM58.7146 21H66.2256C70.3436 21 72.4896 18.593 72.4896 15.403C72.4896 12.648 71.0106 11.111 68.6326 10.56C70.5466 9.98 71.5906 8.385 71.5906 6.413C71.5906 3.542 69.6476 1.28 65.7326 1.28H58.7146V21ZM61.7886 18.332V11.981H65.8776C68.1976 11.981 69.4156 13.228 69.4156 15.171C69.4156 17.027 68.3136 18.332 66.0516 18.332H61.7886ZM61.7886 9.487V3.948H65.5006C67.6466 3.948 68.5456 5.05 68.5456 6.703C68.5456 8.327 67.6176 9.487 65.5586 9.487H61.7886ZM88.0117 21H91.2887L82.6177 0.874H82.4437L73.8016 21H76.9337L78.4707 17.317H86.4747L88.0117 21ZM82.5017 7.689L85.3437 14.591H79.6017L82.5017 7.689ZM94.0301 21H105.833V18.245H97.1331V1.28H94.0301V21ZM115.384 21H118.313V8.211L125.012 16.244H125.157L131.885 8.211V21H134.814V0.874H134.669L125.157 11.981L115.529 0.874H115.384V21ZM148.338 21.261C153.993 21.261 158.517 16.969 158.517 11.14C158.517 5.311 153.993 1.019 148.338 1.019C142.683 1.019 138.159 5.311 138.159 11.14C138.159 16.969 142.683 21.261 148.338 21.261ZM148.338 18.448C144.249 18.448 141.378 15.316 141.378 11.14C141.378 6.964 144.249 3.832 148.338 3.832C152.427 3.832 155.298 6.964 155.298 11.14C155.298 15.316 152.427 18.448 148.338 18.448ZM166.004 13.141V21H169.107V13.112L175.806 1.28H172.558L167.599 10.125L162.553 1.28H159.131L166.004 13.141ZM188.022 21H191.299L182.628 0.874H182.454L173.812 21H176.944L178.481 17.317H186.485L188.022 21ZM182.512 7.689L185.354 14.591H179.612L182.512 7.689Z" fill="black"/>
</svg>
