<svg width="325" height="22" viewBox="0 0 325 22" fill="none" xmlns="http://www.w3.org/2000/svg">
<path d="M10.8978 21.261C14.6098 21.261 16.9008 20.043 18.5538 18.68V10.473H10.4048V13.228H15.6828V17.201C14.5518 17.955 13.0438 18.448 10.8978 18.448C6.40283 18.448 3.56083 15.316 3.56083 11.14C3.56083 6.964 6.37383 3.832 10.3758 3.832C13.2468 3.832 14.6098 4.876 15.7988 6.181L17.9448 4.151C16.3208 2.324 14.1168 1.019 10.4628 1.019C4.80783 1.019 0.341832 5.311 0.341832 11.14C0.341832 16.969 4.83683 21.261 10.8978 21.261ZM22.2559 21H34.0589V18.245H25.3589V1.28H22.2559V21ZM45.3831 21.261C51.0381 21.261 55.5621 16.969 55.5621 11.14C55.5621 5.311 51.0381 1.019 45.3831 1.019C39.7281 1.019 35.2041 5.311 35.2041 11.14C35.2041 16.969 39.7281 21.261 45.3831 21.261ZM45.3831 18.448C41.2941 18.448 38.4231 15.316 38.4231 11.14C38.4231 6.964 41.2941 3.832 45.3831 3.832C49.4721 3.832 52.3431 6.964 52.3431 11.14C52.3431 15.316 49.4721 18.448 45.3831 18.448ZM58.9023 21H66.4133C70.5313 21 72.6773 18.593 72.6773 15.403C72.6773 12.648 71.1983 11.111 68.8203 10.56C70.7343 9.98 71.7783 8.385 71.7783 6.413C71.7783 3.542 69.8353 1.28 65.9203 1.28H58.9023V21ZM61.9763 18.332V11.981H66.0653C68.3853 11.981 69.6033 13.228 69.6033 15.171C69.6033 17.027 68.5013 18.332 66.2393 18.332H61.9763ZM61.9763 9.487V3.948H65.6883C67.8343 3.948 68.7333 5.05 68.7333 6.703C68.7333 8.327 67.8053 9.487 65.7463 9.487H61.9763ZM88.1994 21H91.4764L82.8054 0.874H82.6314L73.9894 21H77.1214L78.6584 17.317H86.6624L88.1994 21ZM82.6894 7.689L85.5314 14.591H79.7894L82.6894 7.689ZM94.2178 21H106.021V18.245H97.3208V1.28H94.2178V21ZM115.571 21H118.5V8.211L125.199 16.244H125.344L132.072 8.211V21H135.001V0.874H134.856L125.344 11.981L115.716 0.874H115.571V21ZM148.526 21.261C154.181 21.261 158.705 16.969 158.705 11.14C158.705 5.311 154.181 1.019 148.526 1.019C142.871 1.019 138.347 5.311 138.347 11.14C138.347 16.969 142.871 21.261 148.526 21.261ZM148.526 18.448C144.437 18.448 141.566 15.316 141.566 11.14C141.566 6.964 144.437 3.832 148.526 3.832C152.615 3.832 155.486 6.964 155.486 11.14C155.486 15.316 152.615 18.448 148.526 18.448ZM165.624 13.141V21H168.727V13.112L175.426 1.28H172.178L167.219 10.125L162.173 1.28H158.751L165.624 13.141ZM187.632 21H190.909L182.238 0.874H182.064L173.422 21H176.554L178.091 17.317H186.095L187.632 21ZM182.122 7.689L184.964 14.591H179.222L182.122 7.689Z" fill="black"/>
<path d="M207.289 14.04H210.45C215.032 14.04 217.7 11.575 217.7 7.66C217.7 3.832 215.061 1.28 210.45 1.28H204.186V21H207.289V14.04ZM207.289 11.285V4.035H210.334C213.234 4.035 214.481 5.224 214.481 7.66C214.481 10.067 213.263 11.285 210.334 11.285H207.289ZM224.026 13.721H227.245H227.622L232.03 21H235.423L230.667 13.17C233.132 12.271 234.495 10.299 234.495 7.544C234.495 3.803 231.856 1.28 227.245 1.28H220.923V21H224.026V13.721ZM224.026 11.053V4.035H227.129C230.029 4.035 231.276 5.166 231.276 7.544C231.276 9.893 230.058 11.053 227.129 11.053H224.026ZM238.255 21H251.218V18.245H241.358V12.387H249.739V9.69H241.358V4.035H250.812V1.28H238.255V21ZM254.851 21H257.78V8.211L264.479 16.244H264.624L271.352 8.211V21H274.281V0.874H274.136L264.624 11.981L254.996 0.874H254.851V21ZM278.67 21H281.773V1.28H278.67V21ZM293.569 21.261C297.832 21.261 301.08 18.854 301.08 14.04V1.28H297.977V13.866C297.977 17.027 296.411 18.448 293.569 18.448C290.698 18.448 289.132 17.027 289.132 13.866V1.28H286.029V14.04C286.029 18.854 289.277 21.261 293.569 21.261ZM305.261 21H308.19V8.211L314.889 16.244H315.034L321.762 8.211V21H324.691V0.874H324.546L315.034 11.981L305.406 0.874H305.261V21Z" fill="#FC5B3F"/>
</svg>
