<svg width="22" height="20" viewBox="0 0 22 20" fill="none" xmlns="http://www.w3.org/2000/svg">
<path fill-rule="evenodd" clip-rule="evenodd" d="M11.0495 0.302734C5.44868 0.302734 0.931885 3.91571 0.931885 8.30192C0.931885 11.149 2.81087 13.6419 5.62935 15.0655L4.6754 18.6279C4.65742 18.6813 4.65465 18.7386 4.66741 18.7935C4.68018 18.8484 4.70797 18.8986 4.74767 18.9386C4.80556 18.9897 4.88006 19.0179 4.95725 19.0181C5.02125 19.013 5.08198 18.9877 5.13069 18.9459L9.23555 16.1783C9.84148 16.2619 10.4523 16.3053 11.0639 16.3083C16.6575 16.3083 21.1816 12.6953 21.1816 8.30192C21.1816 3.90849 16.6431 0.302734 11.0495 0.302734ZM4.47259 7.03733H3.36688C3.22984 7.04131 3.09448 7.00621 2.97663 6.93616C2.92431 6.90338 2.87932 6.86012 2.8445 6.80914C2.80968 6.75816 2.78577 6.70053 2.77428 6.63987C2.77077 6.60141 2.77077 6.56277 2.77428 6.52431C2.77085 6.45235 2.78482 6.38058 2.81501 6.31517C2.8452 6.24976 2.89073 6.19262 2.94772 6.14855C3.07372 6.05731 3.22579 6.00911 3.38133 6.01121H6.71292C6.85106 6.00635 6.98733 6.04422 7.10317 6.11961C7.15673 6.15094 7.20266 6.19381 7.23765 6.24505C7.27265 6.29628 7.29583 6.35463 7.30552 6.41591C7.30905 6.45195 7.30905 6.48827 7.30552 6.52431C7.30893 6.59731 7.29499 6.67006 7.26484 6.73663C7.23469 6.8032 7.1892 6.86163 7.13208 6.90723C7.00916 6.99835 6.85855 7.04433 6.70569 7.03733H5.63612V10.8382C5.64046 10.9192 5.62793 11.0002 5.59931 11.076C5.5707 11.1519 5.52663 11.2211 5.4699 11.279C5.4155 11.3344 5.3501 11.3779 5.27791 11.4065C5.20572 11.4351 5.12834 11.4483 5.05074 11.4452C4.91502 11.4491 4.78217 11.4057 4.67494 11.3224C4.57286 11.2411 4.50358 11.1255 4.47982 10.9972C4.47268 10.9444 4.47268 10.891 4.47982 10.8382L4.47259 7.03733ZM7.83424 6.00399C7.73109 6.07117 7.65644 6.17414 7.62466 6.29305L6.09256 10.448C6.08444 10.4703 6.0746 10.4933 6.06466 10.5164L6.06466 10.5164L6.06465 10.5164C6.03921 10.5757 6.01306 10.6366 6.01306 10.6938C6.00065 10.7655 6.00065 10.8388 6.01306 10.9105C6.00923 10.9514 6.00923 10.9925 6.01306 11.0334C6.03424 11.1532 6.09849 11.2611 6.19374 11.3368C6.29149 11.4102 6.41119 11.4484 6.5334 11.4452C6.64622 11.4594 6.76046 11.434 6.85666 11.3734C6.95286 11.3128 7.02506 11.2207 7.06096 11.1128L7.36449 10.2241H9.26515L9.56868 11.1128C9.60547 11.2186 9.67681 11.309 9.77121 11.3693C9.8656 11.4296 9.97755 11.4563 10.089 11.4452C10.1615 11.4469 10.2336 11.4338 10.3007 11.4064C10.3678 11.379 10.4286 11.3382 10.4793 11.2863C10.5315 11.239 10.5728 11.1808 10.6003 11.1159C10.6277 11.051 10.6407 10.9809 10.6383 10.9105C10.6407 10.8648 10.6407 10.819 10.6383 10.7732C10.6131 10.6632 10.5818 10.5545 10.5443 10.448L9.09894 6.36529C9.06438 6.22061 8.97667 6.09422 8.85322 6.01122C8.73673 5.94501 8.60411 5.91248 8.4702 5.91728H8.19558C8.06938 5.91165 7.94414 5.9417 7.83424 6.00399ZM7.66079 9.40751L8.34734 7.2397L9.02666 9.40751H7.66079ZM10.8038 6.5244C10.7964 6.36224 10.8536 6.20377 10.9628 6.08362C11.0182 6.02765 11.0849 5.98391 11.1583 5.95528C11.2318 5.92665 11.3104 5.9137 11.3891 5.91735C11.5245 5.91577 11.6566 5.95899 11.7649 6.04022C11.8653 6.12499 11.932 6.24289 11.9528 6.37259C11.96 6.42293 11.96 6.47407 11.9528 6.5244V10.3253H13.9402C14.078 10.3235 14.2134 10.361 14.3305 10.4336C14.3831 10.4661 14.4283 10.5092 14.4632 10.5603C14.498 10.6113 14.5218 10.6691 14.5328 10.7299V10.8383C14.5363 10.9103 14.5223 10.982 14.4921 11.0474C14.4619 11.1128 14.4164 11.17 14.3594 11.2141C14.2334 11.3053 14.0813 11.3534 13.9258 11.3513H11.4831C11.3275 11.3614 11.1729 11.3209 11.0422 11.2358C10.9254 11.1484 10.8475 11.0187 10.8254 10.8745C10.8201 10.7951 10.8201 10.7154 10.8254 10.636L10.8038 6.5244ZM14.8222 6.08366C14.7157 6.20537 14.6589 6.36274 14.6632 6.52444L14.6199 10.8022C14.6127 10.8549 14.6127 10.9085 14.6199 10.9612C14.6436 11.0896 14.7129 11.205 14.815 11.2864C14.92 11.3686 15.0502 11.412 15.1836 11.4092C15.2634 11.4126 15.343 11.3995 15.4176 11.371C15.4921 11.3424 15.5601 11.2988 15.6172 11.243C15.7237 11.1213 15.7805 10.9639 15.7762 10.8022V9.5955L16.4194 8.92344L17.7636 11.0913C17.8192 11.1929 17.8986 11.2796 17.9948 11.3441C18.0838 11.3909 18.1835 11.4134 18.2839 11.4092C18.435 11.4114 18.5825 11.363 18.703 11.2719C18.7671 11.2174 18.8171 11.1482 18.8485 11.0702C18.88 10.9921 18.8921 10.9076 18.8837 10.8239V10.7878C18.8438 10.6663 18.7853 10.5517 18.7103 10.4481V10.3759L17.2649 8.13583L18.4646 6.82064C18.5175 6.76093 18.5635 6.69556 18.6019 6.62561C18.6395 6.55955 18.6594 6.48483 18.6597 6.40879C18.6562 6.39212 18.6562 6.37493 18.6597 6.35825C18.6626 6.34395 18.6626 6.32916 18.6597 6.31485C18.6494 6.25652 18.6275 6.20089 18.5952 6.15123C18.5629 6.10156 18.5209 6.05888 18.4718 6.02579C18.3675 5.95452 18.244 5.9167 18.1177 5.91739C18.0313 5.91569 17.9462 5.93829 17.872 5.98248C17.7932 6.04526 17.7184 6.11276 17.6479 6.18475L15.8195 8.29478V6.52444C15.8231 6.47392 15.8231 6.42315 15.8195 6.37263C15.7962 6.24212 15.727 6.12428 15.6244 6.04026C15.5061 5.9541 15.3617 5.91134 15.2156 5.91924C15.0695 5.92714 14.9305 5.98525 14.8222 6.08366Z" fill="#949494"/>
</svg>
