<svg width="20" height="20" viewBox="0 0 20 20" fill="none" xmlns="http://www.w3.org/2000/svg">
<path d="M9.95764 2.31977C12.6183 2.31977 12.9306 2.33103 13.9822 2.37608C14.9547 2.41737 15.4805 2.57128 15.8324 2.70267C16.2989 2.87535 16.631 3.07806 16.9789 3.40841C17.3268 3.73876 17.5442 4.05409 17.7221 4.49705C17.8565 4.83115 18.0226 5.33043 18.0661 6.2539C18.1135 7.25245 18.1254 7.54901 18.1254 10.0754C18.1254 12.6018 18.1135 12.8984 18.0661 13.8969C18.0226 14.8204 17.8605 15.3197 17.7221 15.6538C17.5403 16.0967 17.3268 16.4121 16.9789 16.7424C16.631 17.0728 16.2989 17.2792 15.8324 17.4481C15.4805 17.5758 14.9547 17.7334 13.9822 17.7747C12.9306 17.8198 12.6183 17.8311 9.95764 17.8311C7.297 17.8311 6.98468 17.8198 5.93308 17.7747C4.96054 17.7334 4.43474 17.5795 4.08289 17.4481C3.61638 17.2755 3.2843 17.0728 2.9364 16.7424C2.5885 16.4121 2.37106 16.0967 2.19316 15.6538C2.05874 15.3197 1.8927 14.8204 1.84921 13.8969C1.80177 12.8984 1.78991 12.6018 1.78991 10.0754C1.78991 7.54901 1.80177 7.25245 1.84921 6.2539C1.8927 5.33043 2.05479 4.83115 2.19316 4.49705C2.37502 4.05409 2.5885 3.73876 2.9364 3.40841C3.2843 3.07806 3.61638 2.8716 4.08289 2.70267C4.43474 2.57504 4.96054 2.41737 5.93308 2.37608C6.98468 2.32728 7.30095 2.31977 9.95764 2.31977ZM9.95764 0.615479C7.25351 0.615479 6.91352 0.62674 5.85005 0.671788C4.79054 0.716835 4.06707 0.878254 3.43453 1.111C2.77826 1.35125 2.22479 1.67784 1.67131 2.2034C1.11784 2.72895 0.777843 3.25825 0.520872 3.87765C0.275761 4.47828 0.105765 5.16525 0.0583244 6.17507C0.0108836 7.18112 -0.000976562 7.50396 -0.000976562 10.0717C-0.000976562 12.6394 0.0108836 12.9622 0.0583244 13.972C0.105765 14.9781 0.275761 15.665 0.520872 16.2694C0.77389 16.8926 1.11784 17.4181 1.67131 17.9437C2.22479 18.4692 2.78222 18.7921 3.43453 19.0361C4.06707 19.2688 4.79054 19.4302 5.85401 19.4753C6.91747 19.5203 7.25351 19.5316 9.96159 19.5316C12.6697 19.5316 13.0057 19.5203 14.0692 19.4753C15.1287 19.4302 15.8522 19.2688 16.4887 19.0361C17.1449 18.7958 17.6984 18.4692 18.2519 17.9437C18.8053 17.4181 19.1453 16.8888 19.4023 16.2694C19.6474 15.6688 19.8174 14.9818 19.8649 13.972C19.9123 12.9622 19.9242 12.6431 19.9242 10.0717C19.9242 7.50021 19.9123 7.18112 19.8649 6.17131C19.8174 5.16525 19.6474 4.47828 19.4023 3.8739C19.1493 3.25075 18.8053 2.72519 18.2519 2.19964C17.6984 1.67409 17.141 1.35125 16.4887 1.10724C15.8561 0.8745 15.1326 0.713081 14.0692 0.668034C13.0018 0.62674 12.6618 0.615479 9.95764 0.615479Z" fill="#949494"/>
<path d="M9.95798 5.21704C7.13525 5.21704 4.84229 7.39057 4.84229 10.0746C4.84229 12.7587 7.1313 14.9322 9.95798 14.9322C12.7847 14.9322 15.0737 12.7587 15.0737 10.0746C15.0737 7.39057 12.7847 5.21704 9.95798 5.21704ZM9.95798 13.2242C8.1236 13.2242 6.63713 11.8127 6.63713 10.0709C6.63713 8.32906 8.1236 6.91758 9.95798 6.91758C11.7924 6.91758 13.2788 8.32906 13.2788 10.0709C13.2788 11.8127 11.7924 13.2242 9.95798 13.2242Z" fill="#949494"/>
<path d="M15.2747 6.1563C15.9341 6.1563 16.4687 5.64873 16.4687 5.02261C16.4687 4.39649 15.9341 3.88892 15.2747 3.88892C14.6153 3.88892 14.0808 4.39649 14.0808 5.02261C14.0808 5.64873 14.6153 6.1563 15.2747 6.1563Z" fill="#949494"/>
</svg>
