<svg width="16" height="16" viewBox="0 0 16 16" fill="none" xmlns="http://www.w3.org/2000/svg">
<path fill-rule="evenodd" clip-rule="evenodd" d="M8 14.1C11.3689 14.1 14.1 11.3689 14.1 8C14.1 4.63106 11.3689 1.9 8 1.9C4.63106 1.9 1.9 4.63106 1.9 8C1.9 11.3689 4.63106 14.1 8 14.1ZM8 15.5C12.1421 15.5 15.5 12.1421 15.5 8C15.5 3.85786 12.1421 0.5 8 0.5C3.85786 0.5 0.5 3.85786 0.5 8C0.5 12.1421 3.85786 15.5 8 15.5ZM8.78747 10.9836C8.78747 11.4187 8.43469 11.7715 7.99951 11.7715C7.56433 11.7715 7.21155 11.4187 7.21155 10.9836C7.21155 10.5484 7.56433 10.1956 7.99951 10.1956C8.43469 10.1956 8.78747 10.5484 8.78747 10.9836ZM7.19919 4.21338V8.94043H8.79919V4.21338H7.19919Z" fill="#1F1F1F"/>
</svg>
