<svg width="22" height="16" viewBox="0 0 22 16" fill="none" xmlns="http://www.w3.org/2000/svg">
<path fill-rule="evenodd" clip-rule="evenodd" d="M3.71752 14.1511L5.25017 12.6185C3.38163 11.3531 2.06345 9.721 1.24189 8.70376C1.18599 8.63455 1.13238 8.56817 1.08106 8.50496L0.671631 8.00065L1.08114 7.4964C1.13267 7.43294 1.18651 7.36629 1.24267 7.29678C2.73977 5.4436 5.88395 1.55156 11 1.55156C12.637 1.55156 14.0721 1.95003 15.3159 2.55268L17.1501 0.718491L18.2815 1.84986L16.7488 3.38259C18.6176 4.64797 19.936 6.28036 20.7577 7.29771L20.7584 7.29858L20.7585 7.29871C20.8141 7.36756 20.8674 7.43359 20.9185 7.49649L21.3279 8.00081L20.9184 8.50506C20.8669 8.56852 20.813 8.63517 20.7568 8.70469C19.2597 10.5579 16.1156 14.4499 10.9995 14.4499C9.36224 14.4499 7.92692 14.0513 6.68292 13.4484L4.84889 15.2825L3.71752 14.1511ZM2.73318 8.00079C3.60883 9.06979 4.81122 10.4496 6.40472 11.4639L7.65247 10.2162C7.23139 9.58117 6.98613 8.81945 6.98613 8.00046C6.98613 5.78341 8.78341 3.98613 11.0005 3.98613C11.8195 3.98613 12.5812 4.23139 13.2162 4.65247L14.1058 3.76286C13.1789 3.38481 12.1464 3.15156 11 3.15156C6.93878 3.15156 4.30802 6.07864 2.73318 8.00079ZM12.0453 5.82331C11.7291 5.6713 11.3747 5.58613 11.0005 5.58613C9.66706 5.58613 8.58613 6.66706 8.58613 8.00046C8.58613 8.37474 8.6713 8.72913 8.82331 9.04531L12.0453 5.82331ZM9.95436 10.177L13.177 6.95436C13.3294 7.27085 13.4148 7.62568 13.4148 8.00046C13.4148 9.33386 12.3339 10.4148 11.0005 10.4148C10.6257 10.4148 10.2709 10.3294 9.95436 10.177ZM8.78365 11.3477C9.41886 11.7692 10.181 12.0148 11.0005 12.0148C13.2175 12.0148 15.0148 10.2175 15.0148 8.00046C15.0148 7.18099 14.7692 6.41886 14.3477 5.78365L15.5942 4.53715C17.188 5.55145 18.3906 6.93152 19.2664 8.00066C17.6915 9.9228 15.0607 12.8499 10.9995 12.8499C9.8528 12.8499 8.82012 12.6165 7.89307 12.2383L8.78365 11.3477Z" fill="#C8C8C8"/>
</svg>
