<svg width="22" height="19" viewBox="0 0 22 19" fill="none" xmlns="http://www.w3.org/2000/svg">
<mask id="path-1-inside-1_778_10567" fill="white">
<path fill-rule="evenodd" clip-rule="evenodd" d="M13.5765 8.80971V18.9071H8.42465V8.81079L0.60791 0.463379H21.3922L13.5765 8.80971Z"/>
</mask>
<path d="M13.5765 8.80971L12.7006 7.98948L12.3765 8.33557V8.80971H13.5765ZM13.5765 18.9071V20.1071H14.7765V18.9071H13.5765ZM8.42465 18.9071H7.22465V20.1071H8.42465V18.9071ZM8.42465 8.81079H9.62465V8.33665L9.30057 7.99056L8.42465 8.81079ZM0.60791 0.463379V-0.736621H-2.1598L-0.268003 1.28361L0.60791 0.463379ZM21.3922 0.463379L22.2682 1.28361L24.16 -0.736621H21.3922V0.463379ZM12.3765 8.80971V18.9071H14.7765V8.80971H12.3765ZM13.5765 17.7071H8.42465V20.1071H13.5765V17.7071ZM9.62465 18.9071V8.81079H7.22465V18.9071H9.62465ZM9.30057 7.99056L1.48382 -0.35685L-0.268003 1.28361L7.54874 9.63102L9.30057 7.99056ZM0.60791 1.66338H21.3922V-0.736621H0.60791V1.66338ZM20.5163 -0.35685L12.7006 7.98948L14.4524 9.62994L22.2682 1.28361L20.5163 -0.35685Z" fill="#B7B7B7" mask="url(#path-1-inside-1_778_10567)"/>
</svg>
