<svg width="24" height="24" viewBox="0 0 24 24" fill="none" xmlns="http://www.w3.org/2000/svg">
<path fill-rule="evenodd" clip-rule="evenodd" d="M20.2773 14.3086C19.2743 17.8252 16.0371 20.4 12.1985 20.4C8.35994 20.4 5.12274 17.8252 4.11972 14.3086H2.46631C3.50842 18.7184 7.47024 22 12.1985 22C16.9268 22 20.8886 18.7184 21.9307 14.3086H20.2773ZM4.23896 9.30857C5.36089 5.98944 8.50066 3.6 12.1985 3.6C15.8964 3.6 19.0361 5.98944 20.1581 9.30857H21.8322C20.6569 5.09296 16.7889 2 12.1985 2C7.60813 2 3.74014 5.09296 2.56487 9.30857H4.23896Z" fill="#3F3F3F"/>
<path d="M22.4946 6.53564L21.2581 9.84845L17.9453 8.61193" stroke="#3F3F3F" stroke-width="1.6"/>
<path d="M1.50586 16.7319L2.74238 13.4191L6.05518 14.6557" stroke="#3F3F3F" stroke-width="1.6"/>
<path d="M15.3696 11.1053V7.57027H13.8939V16.9572H15.3696V12.3199H16.6386V11.1053H15.3696ZM8.314 8.51657V9.72393H11.327C11.0659 11.7688 9.90931 13.172 7.75564 14.2597L8.58955 15.3836C11.7802 13.8173 12.828 11.3809 12.8352 8.51657H8.314Z" fill="#3F3F3F"/>
</svg>
