<svg width="120" height="160" viewBox="0 0 120 160" fill="none" xmlns="http://www.w3.org/2000/svg">
<path d="M0 2C0 0.895429 0.895431 0 2 0H118C119.105 0 120 0.895431 120 2V158C120 159.105 119.105 160 118 160H2C0.895429 160 0 159.105 0 158V2Z" fill="#F5F5F5"/>
<path d="M54.8363 112.074C54.8318 113.432 54.6723 114.656 54.3578 115.745C54.0479 116.83 53.4828 117.841 52.6625 118.78C51.8467 119.719 50.712 120.551 49.2582 121.275L48.4242 120.127C49.4724 119.612 50.3314 119.045 51.0014 118.425C51.6713 117.805 52.1908 117.121 52.56 116.374L48.7113 116.736L48.5199 115.424L53.018 115.144C53.1775 114.56 53.28 113.947 53.3256 113.305H49.1625V112.074H54.8363ZM56.5727 110.857H58.0902V115.697H59.9223V116.941H58.0902V123.189H56.5727V110.857ZM70.3453 117.871H61.6773V111.938H70.2496V113.168H63.1813V116.654H70.3453V117.871ZM60.3102 120.387H71.6031V121.645H60.3102V120.387Z" fill="#2A2A2A"/>
<rect x="10" y="10" width="100" height="90" rx="1" fill="#DFDFDF"/>
<path fill-rule="evenodd" clip-rule="evenodd" d="M108 134H12V133H108V134Z" fill="#3F3F3F"/>
<path fill-rule="evenodd" clip-rule="evenodd" d="M108 147H12V146H108V147Z" fill="#3F3F3F"/>
<path d="M2 1H118V-1H2V1ZM119 2V158H121V2H119ZM118 159H2V161H118V159ZM1 158V2H-1V158H1ZM2 159C1.44771 159 1 158.552 1 158H-1C-1 159.657 0.343143 161 2 161V159ZM119 158C119 158.552 118.552 159 118 159V161C119.657 161 121 159.657 121 158H119ZM118 1C118.552 1 119 1.44771 119 2H121C121 0.343147 119.657 -1 118 -1V1ZM2 -1C0.343147 -1 -1 0.343143 -1 2H1C1 1.44771 1.44771 1 2 1V-1Z" fill="#1A1A1A"/>
</svg>
