<svg width="200" height="76" viewBox="0 0 200 76" fill="none" xmlns="http://www.w3.org/2000/svg">
<path d="M0 2C0 0.895432 0.89543 0 2 0H198C199.105 0 200 0.895431 200 2V74C200 75.1046 199.105 76 198 76H2C0.895429 76 0 75.1046 0 74V2Z" fill="#F5F5F5"/>
<path d="M23.0742 25.2168H21.6113V18.8867H20.2988V24.6152H18.8633V13.0762H20.2988V17.6289H21.6113V12.8574H23.0742V25.2168ZM12.793 14.1973H17.6465V22.0312H12.793V14.1973ZM16.2246 20.8281V15.4004H14.2148V20.8281H16.2246ZM34.6594 25.2168H33.1418V18.9277H30.5305V17.6836H33.1418V12.8574H34.6594V25.2168ZM24.2277 21.7988C25.7909 21.0332 26.953 20.1263 27.7141 19.0781C28.4751 18.0299 28.9217 16.7949 29.0539 15.373H24.802V14.1699H30.5852C30.5806 15.4551 30.4029 16.6309 30.052 17.6973C29.7056 18.7591 29.1223 19.7367 28.302 20.6299C27.4862 21.5231 26.3924 22.3092 25.0207 22.9883L24.2277 21.7988ZM40.8988 15.373C40.8988 15.8926 41.015 16.3939 41.2475 16.877C41.4799 17.36 41.824 17.7907 42.2797 18.1689C42.7354 18.5426 43.2823 18.8275 43.9203 19.0234L43.141 20.2129C42.4529 19.9896 41.8559 19.6592 41.35 19.2217C40.8441 18.7796 40.4454 18.2578 40.1537 17.6562C39.8712 18.3079 39.4678 18.8753 38.9438 19.3584C38.4242 19.8415 37.8044 20.2083 37.0844 20.459L36.3051 19.2559C36.9477 19.0417 37.4991 18.7363 37.9594 18.3398C38.4197 17.9388 38.7683 17.4831 39.0053 16.9727C39.2423 16.4577 39.363 15.9245 39.3676 15.373V15.0176H36.7016V13.8008H43.4965V15.0176H40.8988V15.373ZM38.3285 21.0195H39.8598V23.7402H46.8461V24.9707H38.3285V21.0195ZM44.973 12.8711H46.5043V21.8398H44.973V12.8711Z" fill="#2A2A2A"/>
<rect x="122" y="10" width="68" height="56" rx="1" fill="#DFDFDF"/>
<path fill-rule="evenodd" clip-rule="evenodd" d="M108 37H12V36H108V37Z" fill="#3F3F3F"/>
<path fill-rule="evenodd" clip-rule="evenodd" d="M108 50H12V49H108V50Z" fill="#3F3F3F"/>
<path fill-rule="evenodd" clip-rule="evenodd" d="M108 63H12V62H108V63Z" fill="#3F3F3F"/>
<path d="M2 1H198V-1H2V1ZM199 2V74H201V2H199ZM198 75H2V77H198V75ZM1 74V2H-1V74H1ZM2 75C1.44771 75 1 74.5523 1 74H-1C-1 75.6569 0.343143 77 2 77V75ZM199 74C199 74.5523 198.552 75 198 75V77C199.657 77 201 75.6569 201 74H199ZM198 1C198.552 1 199 1.44771 199 2H201C201 0.343147 199.657 -1 198 -1V1ZM2 -1C0.343145 -1 -1 0.343148 -1 2H1C1 1.44772 1.44772 1 2 1V-1Z" fill="#1A1A1A"/>
</svg>
