<svg width="200" height="76" viewBox="0 0 200 76" fill="none" xmlns="http://www.w3.org/2000/svg">
<path d="M0 2C0 0.895432 0.895431 0 2 0H198C199.105 0 200 0.895431 200 2V74C200 75.1046 199.105 76 198 76H2C0.895429 76 0 75.1046 0 74V2Z" fill="#F5F5F5"/>
<path fill-rule="evenodd" clip-rule="evenodd" d="M188 37H12V36H188V37Z" fill="#3F3F3F"/>
<path fill-rule="evenodd" clip-rule="evenodd" d="M188 50H12V49H188V50Z" fill="#3F3F3F"/>
<path fill-rule="evenodd" clip-rule="evenodd" d="M188 63H12V62H188V63Z" fill="#3F3F3F"/>
<path d="M17.6328 14.9219H14.3926V16.1934H17.168V17.3555H14.3926V18.7227C15.1628 18.7181 15.8281 18.6953 16.3887 18.6543C16.9492 18.6133 17.5189 18.5404 18.0977 18.4355L18.2617 19.6523C17.6283 19.7617 17.0039 19.8346 16.3887 19.8711C15.7734 19.9076 15.0146 19.9258 14.1123 19.9258H13.75H12.9297V13.7051H17.6328V14.9219ZM14.4746 21.0605H22.9785V25.2168H21.4609V22.2773H14.4746V21.0605ZM17.7012 16.043H19.0957V13.1172H20.5449V20.459H19.0957V17.2734H17.7012V16.043ZM21.5293 12.8711H22.9785V20.541H21.5293V12.8711ZM30.6945 14.5527C30.6945 15.1862 30.8859 15.8037 31.2688 16.4053C31.6561 17.0068 32.1893 17.5264 32.8684 17.9639C33.5474 18.3968 34.3085 18.6862 35.1516 18.832L34.468 20.1035C33.438 19.8893 32.5197 19.486 31.7131 18.8936C30.9064 18.3011 30.3003 17.5879 29.8947 16.7539C29.6258 17.3008 29.2635 17.8021 28.8078 18.2578C28.3521 18.709 27.828 19.0941 27.2355 19.4131C26.6431 19.7275 26.0051 19.9577 25.3215 20.1035L24.6516 18.832C25.481 18.6816 26.2329 18.39 26.9074 17.957C27.5865 17.5195 28.1174 17 28.5002 16.3984C28.8876 15.7969 29.0813 15.1816 29.0813 14.5527V13.6367H30.6945V14.5527ZM24.3098 22.3867H35.6027V23.6445H24.3098V22.3867ZM46.2582 20.541H37.5902V13.8281H46.1488V15.0586H39.1352V16.5488H45.8617V17.7383H39.1352V19.3379H46.2582V20.541ZM36.2094 22.4688H47.5023V23.7129H36.2094V22.4688ZM62.4969 20.5273H51.2313V19.2969H56.0848V18.2031C55.3283 18.1484 54.672 18.014 54.116 17.7998C53.5646 17.5856 53.1385 17.3008 52.8377 16.9453C52.5415 16.5898 52.3934 16.1751 52.3934 15.7012C52.3934 15.1908 52.5757 14.7464 52.9402 14.3682C53.3094 13.9899 53.8289 13.7005 54.4988 13.5C55.1688 13.2995 55.9526 13.1992 56.8504 13.1992C57.7436 13.1992 58.5252 13.2995 59.1951 13.5C59.865 13.7005 60.3846 13.9899 60.7537 14.3682C61.1229 14.7464 61.3074 15.1908 61.3074 15.7012C61.3074 16.1751 61.157 16.5898 60.8563 16.9453C60.5555 17.3008 60.1271 17.5856 59.5711 17.7998C59.0197 18.014 58.368 18.1484 57.616 18.2031V19.2969H62.4969V20.5273ZM52.6258 21.375H54.1434V23.7402H61.2254V24.9707H52.6258V21.375ZM53.9793 15.7012C53.9747 16.1204 54.2208 16.4417 54.7176 16.665C55.2143 16.8883 55.9116 17 56.8094 17C57.7391 17 58.4591 16.8906 58.9695 16.6719C59.4799 16.4486 59.7352 16.125 59.7352 15.7012C59.7352 15.4323 59.6189 15.2021 59.3865 15.0107C59.1587 14.8148 58.8283 14.6644 58.3953 14.5596C57.9624 14.4548 57.4474 14.4023 56.8504 14.4023C56.2534 14.4023 55.7384 14.4548 55.3055 14.5596C54.8725 14.6644 54.5421 14.8148 54.3143 15.0107C54.0864 15.2021 53.9747 15.4323 53.9793 15.7012ZM73.4258 25.2305H71.9219V12.8574H73.4258V25.2305ZM63.8008 13.9375H69.625V18.5723H65.373V21.0605C66.403 21.0514 67.3555 21.015 68.2305 20.9512C69.1055 20.8874 70.0033 20.778 70.9238 20.623L71.0605 21.8672C70.1035 22.0312 69.1602 22.1452 68.2305 22.209C67.3053 22.2728 66.2754 22.3047 65.1406 22.3047H64.8945H63.8145V17.3691H68.0801V15.168H63.8008V13.9375Z" fill="#2A2A2A"/>
<path d="M2 1H198V-1H2V1ZM199 2V74H201V2H199ZM198 75H2V77H198V75ZM1 74V2H-1V74H1ZM2 75C1.44771 75 1 74.5523 1 74H-1C-1 75.6569 0.343143 77 2 77V75ZM199 74C199 74.5523 198.552 75 198 75V77C199.657 77 201 75.6569 201 74H199ZM198 1C198.552 1 199 1.44771 199 2H201C201 0.343147 199.657 -1 198 -1V1ZM2 -1C0.343145 -1 -1 0.343148 -1 2H1C1 1.44772 1.44772 1 2 1V-1Z" fill="#1A1A1A"/>
</svg>
