<svg width="120" height="160" viewBox="0 0 120 160" fill="none" xmlns="http://www.w3.org/2000/svg">
<path d="M0 2C0 0.895429 0.895431 0 2 0H118C119.105 0 120 0.895431 120 2V158C120 159.105 119.105 160 118 160H2C0.895429 160 0 159.105 0 158V2Z" fill="white"/>
<path fill-rule="text" d="M54.7227 110.156C54.7181 111.464 54.5518 112.656 54.2236 113.731C53.9001 114.802 53.3281 115.803 52.5078 116.732C51.6875 117.662 50.5618 118.478 49.1309 119.18L48.4199 118.209C49.5 117.68 50.3864 117.088 51.0791 116.432C51.7718 115.775 52.305 115.049 52.6787 114.251L48.6797 114.627L48.4883 113.506L53.082 113.198C53.2552 112.61 53.3669 111.947 53.417 111.209H49.1309V110.156H54.7227ZM56.5957 108.912H57.8945V113.807H59.7949V114.873H57.8945V121.148H56.5957V108.912ZM70.377 115.789H61.8457V110.006H70.2676V111.072H63.1309V114.723H70.377V115.789ZM60.4512 118.469H71.6621V119.549H60.4512V118.469Z" fill="#949494"/>
<rect x="10" y="10" width="100" height="90" rx="1" fill="#EFEFEF"/>
<path fill-rule="evenodd" clip-rule="evenodd" d="M108 134H12V133H108V134Z" fill="#C8C8C8"/>
<path fill-rule="evenodd" clip-rule="evenodd" d="M108 147H12V146H108V147Z" fill="#C8C8C8"/>
<path fill-rule="evenodd" d="M2 1H118V-1H2V1ZM119 2V158H121V2H119ZM118 159H2V161H118V159ZM1 158V2H-1V158H1ZM2 159C1.44771 159 1 158.552 1 158H-1C-1 159.657 0.343143 161 2 161V159ZM119 158C119 158.552 118.552 159 118 159V161C119.657 161 121 159.657 121 158H119ZM118 1C118.552 1 119 1.44771 119 2H121C121 0.343147 119.657 -1 118 -1V1ZM2 -1C0.343147 -1 -1 0.343143 -1 2H1C1 1.44771 1.44771 1 2 1V-1Z" fill="#C8C8C8"/>
</svg>
