<svg width="200" height="76" viewBox="0 0 200 76" fill="none" xmlns="http://www.w3.org/2000/svg">
<path d="M0 2C0 0.895432 0.895431 0 2 0H198C199.105 0 200 0.895431 200 2V74C200 75.1046 199.105 76 198 76H2C0.895429 76 0 75.1046 0 74V2Z" fill="white"/>
<path d="M17.6602 14.8125H14.2422V16.248H17.1816V17.2461H14.2422V18.791C15.0898 18.7865 15.8053 18.7637 16.3887 18.7227C16.9766 18.6816 17.5736 18.6042 18.1797 18.4902L18.3027 19.5293C17.6374 19.6523 16.9811 19.7344 16.334 19.7754C15.6868 19.8118 14.8392 19.8301 13.791 19.8301H12.998V13.7734H17.6602V14.8125ZM14.5293 21.0605H22.8965V25.1621H21.6113V22.0996H14.5293V21.0605ZM17.7422 16.0977H19.2598V13.1719H20.4902V20.418H19.2598V17.1641H17.7422V16.0977ZM21.666 12.9258H22.8965V20.5H21.666V12.9258ZM30.7715 14.6484C30.7715 15.2956 30.9788 15.9245 31.3936 16.5352C31.8083 17.1458 32.3597 17.6676 33.0479 18.1006C33.7406 18.529 34.4766 18.8138 35.2559 18.9551L34.6543 20.0352C33.998 19.8939 33.3714 19.6615 32.7744 19.3379C32.1774 19.0143 31.6465 18.6201 31.1816 18.1553C30.7214 17.6859 30.3613 17.1686 30.1016 16.6035C29.8372 17.1641 29.4727 17.679 29.0078 18.1484C28.543 18.6133 28.012 19.0075 27.415 19.3311C26.818 19.6546 26.1914 19.8893 25.5352 20.0352L24.9609 18.9551C25.7311 18.8092 26.4557 18.5221 27.1348 18.0938C27.8184 17.6608 28.3675 17.1413 28.7822 16.5352C29.1969 15.9245 29.4043 15.2956 29.4043 14.6484V13.7188H30.7715V14.6484ZM24.5508 22.4688H35.7617V23.5488H24.5508V22.4688ZM46.5898 20.4727H38.0586V13.9238H46.4668V14.9766H39.3711V16.6309H46.207V17.6562H39.3711V19.4336H46.5898V20.4727ZM36.6504 22.5508H47.8613V23.6172H36.6504V22.5508ZM63.3379 20.4316H52.168V19.3652H57.1035V18.1826C56.3379 18.137 55.6748 18.0094 55.1143 17.7998C54.5537 17.5902 54.123 17.3099 53.8223 16.959C53.5215 16.6035 53.3711 16.1888 53.3711 15.7148C53.3711 15.2135 53.5488 14.7783 53.9043 14.4092C54.2598 14.04 54.7679 13.7552 55.4287 13.5547C56.0895 13.3542 56.862 13.2539 57.7461 13.2539C58.6257 13.2539 59.3936 13.3542 60.0498 13.5547C60.7106 13.7552 61.221 14.04 61.5811 14.4092C61.9411 14.7783 62.1211 15.2135 62.1211 15.7148C62.1211 16.1888 61.9684 16.6035 61.6631 16.959C61.3623 17.3099 60.9316 17.5902 60.3711 17.7998C59.8105 18.0094 59.1497 18.137 58.3887 18.1826V19.3652H63.3379V20.4316ZM53.5762 21.3477H54.8887V23.8496H62.0801V24.9023H53.5762V21.3477ZM54.7109 15.7148C54.7064 16.1706 54.973 16.5238 55.5107 16.7744C56.0485 17.0205 56.7936 17.1458 57.7461 17.1504C58.694 17.1458 59.4368 17.0205 59.9746 16.7744C60.5169 16.5238 60.7858 16.1706 60.7812 15.7148C60.7812 15.4277 60.6605 15.1794 60.4189 14.9697C60.1774 14.7555 59.8288 14.5915 59.373 14.4775C58.9219 14.3636 58.391 14.3066 57.7803 14.3066C57.1514 14.3066 56.6045 14.3636 56.1396 14.4775C55.6794 14.5869 55.3262 14.7487 55.0801 14.9629C54.834 15.1725 54.7109 15.4232 54.7109 15.7148ZM74.4395 25.1895H73.1406V12.9121H74.4395V25.1895ZM64.9512 14.0195H70.6934V18.4902H66.291V21.1699C67.3529 21.1654 68.335 21.1312 69.2373 21.0674C70.1442 21.0036 71.0853 20.8919 72.0605 20.7324L72.1836 21.7988C71.1673 21.9674 70.1807 22.0837 69.2236 22.1475C68.2666 22.2113 67.1934 22.2454 66.0039 22.25H64.9648V17.4512H69.3672V15.0723H64.9512V14.0195Z" fill="#949494"/>
<path fill-rule="evenodd" clip-rule="evenodd" d="M188 37H12V36H188V37Z" fill="#C8C8C8"/>
<path fill-rule="evenodd" clip-rule="evenodd" d="M188 50H12V49H188V50Z" fill="#C8C8C8"/>
<path fill-rule="evenodd" clip-rule="evenodd" d="M188 63H12V62H188V63Z" fill="#C8C8C8"/>
<path d="M2 1H198V-1H2V1ZM199 2V74H201V2H199ZM198 75H2V77H198V75ZM1 74V2H-1V74H1ZM2 75C1.44771 75 1 74.5523 1 74H-1C-1 75.6569 0.343143 77 2 77V75ZM199 74C199 74.5523 198.552 75 198 75V77C199.657 77 201 75.6569 201 74H199ZM198 1C198.552 1 199 1.44771 199 2H201C201 0.343147 199.657 -1 198 -1V1ZM2 -1C0.343145 -1 -1 0.343148 -1 2H1C1 1.44772 1.44772 1 2 1V-1Z" fill="#C8C8C8"/>
</svg>
