<svg width="200" height="76" viewBox="0 0 200 76" fill="none" xmlns="http://www.w3.org/2000/svg">
<path d="M0 2C0 0.895432 0.895431 0 2 0H198C199.105 0 200 0.895431 200 2V74C200 75.1046 199.105 76 198 76H2C0.895429 76 0 75.1046 0 74V2Z" fill="white"/>
<path d="M22.9922 25.1621H21.748V18.7773H20.2305V24.5605H19V13.1445H20.2305V17.7109H21.748V12.9121H22.9922V25.1621ZM12.8613 14.293H17.6191V21.9355H12.8613V14.293ZM16.4023 20.8965V15.3184H14.0918V20.8965H16.4023ZM34.75 25.1621H33.4648V18.832H30.7168V17.7656H33.4648V12.9121H34.75V25.1621ZM24.5234 21.8672C26.1094 21.0924 27.2965 20.1605 28.085 19.0713C28.8734 17.9775 29.3245 16.7083 29.4385 15.2637H25.0703V14.2246H30.7578C30.7487 16.1204 30.3158 17.7952 29.459 19.249C28.6022 20.6982 27.1849 21.9128 25.207 22.8926L24.5234 21.8672ZM41.1895 15.4688C41.1895 15.9974 41.3125 16.5055 41.5586 16.9932C41.8092 17.4808 42.1647 17.9137 42.625 18.292C43.0898 18.6657 43.6322 18.9505 44.252 19.1465L43.582 20.1582C42.8848 19.9303 42.2764 19.5863 41.7568 19.126C41.2373 18.6657 40.8363 18.1257 40.5537 17.5059C40.2757 18.1803 39.8701 18.7682 39.3369 19.2695C38.8037 19.7708 38.1771 20.1491 37.457 20.4043L36.7871 19.3789C37.4115 19.1647 37.9561 18.8594 38.4209 18.4629C38.8857 18.0618 39.2435 17.6016 39.4941 17.082C39.7493 16.5625 39.877 16.0247 39.877 15.4688V14.9355H37.1289V13.8828H43.8828V14.9355H41.1895V15.4688ZM38.7969 21.0195H40.1094V23.8496H47.1777V24.9023H38.7969V21.0195ZM45.5098 12.9258H46.8086V21.8672H45.5098V12.9258Z" fill="#949494"/>
<rect x="122" y="10" width="68" height="56" rx="1" fill="#EFEFEF"/>
<path fill-rule="evenodd" clip-rule="evenodd" d="M108 37H12V36H108V37Z" fill="#C8C8C8"/>
<path fill-rule="evenodd" clip-rule="evenodd" d="M108 50H12V49H108V50Z" fill="#C8C8C8"/>
<path fill-rule="evenodd" clip-rule="evenodd" d="M108 63H12V62H108V63Z" fill="#C8C8C8"/>
<path d="M2 1H198V-1H2V1ZM199 2V74H201V2H199ZM198 75H2V77H198V75ZM1 74V2H-1V74H1ZM2 75C1.44771 75 1 74.5523 1 74H-1C-1 75.6569 0.343143 77 2 77V75ZM199 74C199 74.5523 198.552 75 198 75V77C199.657 77 201 75.6569 201 74H199ZM198 1C198.552 1 199 1.44771 199 2H201C201 0.343147 199.657 -1 198 -1V1ZM2 -1C0.343145 -1 -1 0.343148 -1 2H1C1 1.44772 1.44772 1 2 1V-1Z" fill="#C8C8C8"/>
</svg>
