<svg width="24" height="25" viewBox="0 0 24 25" fill="none" xmlns="http://www.w3.org/2000/svg">
<path fill-rule="evenodd" clip-rule="evenodd" d="M20.2768 15.1777C19.2738 18.6944 16.0366 21.2691 12.198 21.2691C8.35946 21.2691 5.12225 18.6944 4.11924 15.1777H2.46582C3.50793 19.5876 7.46975 22.8691 12.198 22.8691C16.9263 22.8691 20.8881 19.5876 21.9302 15.1777H20.2768ZM4.23847 10.1777C5.3604 6.85858 8.50017 4.46914 12.198 4.46914C15.8959 4.46914 19.0357 6.85858 20.1576 10.1777H21.8317C20.6564 5.9621 16.7884 2.86914 12.198 2.86914C7.60764 2.86914 3.73965 5.9621 2.56439 10.1777H4.23847Z" fill="#3F3F3F"/>
<path d="M22.4941 7.40479L21.2576 10.7176L17.9448 9.48107" stroke="#3F3F3F" stroke-width="1.6"/>
<path d="M1.50537 17.6011L2.74189 14.2883L6.05469 15.5248" stroke="#3F3F3F" stroke-width="1.6"/>
<path d="M8.46533 16.6152L11.1616 8.83789H13.2349L15.9204 16.6152H14.1909L13.6055 14.8213H10.791L10.2056 16.6152H8.46533ZM13.1973 13.5645L12.2251 10.5889H12.1714L11.1992 13.5645H13.1973Z" fill="#3F3F3F"/>
</svg>
